<?xml version="1.0" encoding="iso-8859-1"?>
<!-- Uploaded to: SVG Repo, www.svgrepo.com, Generator: SVG Repo Mixer Tools -->
<svg version="1.1" id="Layer_1" xmlns="http://www.w3.org/2000/svg" xmlns:xlink="http://www.w3.org/1999/xlink" 
	 viewBox="0 0 512 512" xml:space="preserve">
<polygon style="fill:#C60024;" points="199.659,239.051 36.08,183.143 36.08,356.974 36.08,378.39 220.229,315.453 220.229,246.081 
	"/>
<g>
	<rect x="220.231" y="246.079" style="fill:#A50020;" width="71.544" height="69.376"/>
	<rect x="475.918" y="246.079" style="fill:#A50020;" width="28.444" height="69.376"/>
	<rect x="7.635" y="246.079" style="fill:#A50020;" width="28.445" height="69.376"/>
</g>
<polygon style="fill:#C60024;" points="475.92,378.39 291.771,315.453 291.771,246.081 475.92,183.143 "/>
<g>
	<polygon style="fill:#A50020;" points="199.659,239.051 199.659,301.066 36.08,356.974 36.08,378.39 220.229,315.453 
		220.229,246.081 	"/>
	<polygon style="fill:#A50020;" points="312.341,239.051 312.341,301.066 475.92,356.974 475.92,378.39 291.771,315.453 
		291.771,246.081 	"/>
</g>
<rect x="248.368" y="122.933" width="15.27" height="47.537"/>
<rect x="295.138" y="153.932" transform="matrix(0.4198 -0.9076 0.9076 0.4198 38.3877 383.1826)" width="47.536" height="15.269"/>
<rect x="185.454" y="137.802" transform="matrix(0.9076 -0.4198 0.4198 0.9076 -49.9896 95.9865)" width="15.269" height="47.536"/>
<path d="M483.556,172.465l-193.051,65.98h-69.008l-193.051-65.98v65.98H0v84.642h28.445v65.98l193.051-65.98h69.008l193.051,65.98
	v-65.98H512v-84.642h-28.444V172.465z M28.445,307.818H15.27v-54.103h13.175C28.445,253.716,28.445,307.818,28.445,307.818z
	 M212.594,262.264l-83.33-12.231l-2.217,15.109l85.547,12.556v9.724l-49.134,6.357l1.959,15.145l47.175-6.104v7.176L43.714,367.713
	v-44.624v-84.642v-44.624l168.879,57.718V262.264z M284.137,307.818h-56.273v-54.103h56.273V307.818z M468.286,238.446v84.642
	v44.624l-168.879-57.718v-7.176l47.175,6.104l1.959-15.145l-49.134-6.357v-9.724l85.547-12.556l-2.217-15.109l-83.33,12.231V251.54
	l168.879-57.718L468.286,238.446L468.286,238.446z M496.73,253.716v54.103h-13.175v-54.103H496.73z"/>
</svg>