<svg xmlns="http://www.w3.org/2000/svg" xmlns:xlink="http://www.w3.org/1999/xlink" version="1.1" x="0px" y="0px" viewBox="0 0 64 64" enable-background="new 0 0 64 64" xml:space="preserve">
<g id="chat-outline-bot_x5F_s1g1_x5F_s2g2_x5F_s3g1_x5F_s4g1_x5F_background">
	
		<path fill="#FFFFFF" stroke="#7950F2FF" stroke-width="1" stroke-linecap="round" stroke-linejoin="round" stroke-miterlimit="10" d="   M21.125,14.944H35.48c4.989,0,9.034,4.045,9.034,9.034v3.915c0,4.989-4.045,9.034-9.034,9.034H20.761   c-0.441,0-0.798,0.357-0.798,0.798v0.06c0,2.056-1.503,3.892-3.549,4.087c-2.348,0.224-4.323-1.616-4.323-3.918V27.893v-1.972   v-1.943C12.091,18.989,16.135,14.944,21.125,14.944z"/>
</g>
<g id="chat-outline-top_x5F_s1g1_x5F_s2g1_x5F_s3g1_x5F_s4g1_x5F_background">
	<g id="home-outline-first_x5F_s1g1_x5F_s2g1_x5F_s3g1_x5F_s4g1_1_">
	</g>
	
		<path fill="#FFFFFF" stroke="#000000" stroke-width="1" stroke-linecap="round" stroke-linejoin="round" stroke-miterlimit="10" d="   M42.528,21.073h-9.271c-5.181,0-9.381,4.2-9.381,9.381v4.065c0,5.181,4.2,9.381,9.381,9.381h9.649c0.458,0,0.828,0.371,0.828,0.828   v0.063c0,2.135,1.561,4.041,3.686,4.244c2.438,0.233,4.489-1.678,4.489-4.068V34.52v-2.048v-2.018   C51.909,25.273,47.709,21.073,42.528,21.073z"/>
</g>
<g id="chat-outline-bot_x5F_s1g1_x5F_s2g2_x5F_s3g1_x5F_s4g1">
	<g>
		<path stroke="#7950F2FF" stroke-width="1" stroke-linecap="round" stroke-linejoin="round" stroke-miterlimit="10" d="M44.51,33.49    c-0.26,0-0.52-0.11-0.7-0.29c-0.1-0.1-0.17-0.21-0.22-0.33c-0.05-0.12-0.08-0.25-0.08-0.38c0-0.27,0.11-0.52,0.3-0.71    c0.37-0.37,1.04-0.37,1.41,0c0.19,0.19,0.29,0.44,0.29,0.71c0,0.13-0.02,0.26-0.07,0.38c-0.05,0.12-0.13,0.23-0.22,0.33    C45.03,33.38,44.78,33.49,44.51,33.49z"/>
	</g>
	<g>
		<path stroke="#7950F2FF" stroke-width="1" stroke-linecap="round" stroke-linejoin="round" stroke-miterlimit="10" d="M37.89,33.49    c-0.26,0-0.52-0.11-0.7-0.3c-0.19-0.18-0.3-0.44-0.3-0.7c0-0.27,0.11-0.52,0.3-0.71c0.36-0.37,1.04-0.37,1.41,0    c0.19,0.19,0.29,0.44,0.29,0.71c0,0.26-0.1,0.52-0.29,0.7c-0.05,0.05-0.1,0.09-0.15,0.13c-0.06,0.03-0.12,0.07-0.18,0.09    c-0.06,0.03-0.12,0.05-0.18,0.06C38.02,33.48,37.96,33.49,37.89,33.49z"/>
	</g>
	<g>
		<path stroke="#7950F2FF" stroke-width="1" stroke-linecap="round" stroke-linejoin="round" stroke-miterlimit="10" d="M31.27,33.49    c-0.13,0-0.26-0.03-0.38-0.08c-0.12-0.05-0.23-0.12-0.33-0.22c-0.18-0.18-0.29-0.44-0.29-0.7c0-0.26,0.11-0.52,0.29-0.71    c0.1-0.09,0.21-0.17,0.33-0.22c0.37-0.15,0.81-0.06,1.09,0.22c0.09,0.09,0.16,0.2,0.21,0.32c0.06,0.13,0.08,0.26,0.08,0.39    c0,0.26-0.11,0.52-0.29,0.7C31.79,33.38,31.53,33.49,31.27,33.49z"/>
	</g>
</g>
</svg>