<?xml version="1.0" encoding="iso-8859-1"?>
<!-- Uploaded to: SVG Repo, www.svgrepo.com, Generator: SVG Repo Mixer Tools -->
<svg height="800px" width="800px" version="1.1" id="Layer_1" xmlns="http://www.w3.org/2000/svg" xmlns:xlink="http://www.w3.org/1999/xlink" 
	 viewBox="0 0 512 512" xml:space="preserve">
<path style="fill:#FFFFFF;" d="M256,508C117.04,508,4,394.96,4,256S117.04,4,256,4s252,113.04,252,252S394.96,508,256,508z"/>
<g>
	<path style="fill:#D6D6D6;" d="M256,8c136.752,0,248,111.248,248,248S392.752,504,256,504S8,392.752,8,256S119.248,8,256,8 M256,0
		C114.608,0,0,114.608,0,256s114.608,256,256,256s256-114.608,256-256S397.392,0,256,0L256,0z"/>
	<circle style="fill:#D6D6D6;" cx="185.744" cy="103.872" r="32"/>
</g>
<g>
	<path style="fill:#333333;" d="M184.24,210.272l-30.928-67.04c0,0-32.432,0.432-32.432,30.272s0,36.768,0,36.768
		S184.448,210.272,184.24,210.272z"/>
	<path style="fill:#333333;" d="M187.264,210.272l30.928-67.04c0,0,32.432,0.432,32.432,30.272s0,36.768,0,36.768
		S187.056,210.272,187.264,210.272z"/>
</g>
<polygon style="fill:#0BA4E0;" points="185.744,143.232 163.472,143.232 185.744,192.528 208.032,143.232 "/>
<circle style="fill:#D6D6D6;" cx="345.744" cy="263.872" r="32"/>
<g>
	<path style="fill:#333333;" d="M344.24,370.272l-30.928-67.04c0,0-32.432,0.432-32.432,30.272s0,36.768,0,36.768
		S344.448,370.272,344.24,370.272z"/>
	<path style="fill:#333333;" d="M347.264,370.272l30.928-67.04c0,0,32.432,0.432,32.432,30.272s0,36.768,0,36.768
		S347.056,370.272,347.264,370.272z"/>
</g>
<polygon style="fill:#0BA4E0;" points="345.744,303.232 323.472,303.232 345.744,352.528 368.032,303.232 "/>
<g>
	<path style="fill:#333333;" d="M283.328,139.264v16.512c26.464,7.232,48.704,24.624,62.304,47.76h18.112
		C348.112,171.552,318.752,147.552,283.328,139.264z"/>
	<path style="fill:#333333;" d="M152,256c0-4.704,0.416-9.28,1.024-13.824h-16.16C136.336,246.72,136,251.328,136,256
		c0,62.464,47.984,113.888,109.04,119.44v-16.032C192.832,353.92,152,309.648,152,256z"/>
</g>
</svg>