<?xml version="1.0" encoding="iso-8859-1"?>
<!-- Uploaded to: SVG Repo, www.svgrepo.com, Generator: SVG Repo Mixer Tools -->
<svg version="1.1" id="Layer_1" xmlns="http://www.w3.org/2000/svg" xmlns:xlink="http://www.w3.org/1999/xlink" 
	 viewBox="0 0 322.559 322.559" xml:space="preserve">
<g>
	<path style="fill:#61B4E4;" d="M193.559,60.203c0,13.337,10.912,24.248,24.248,24.248h80.504c13.336,0,24.248-10.911,24.248-24.248
		v-28.33c0-13.337-10.912-24.248-24.248-24.248h-80.504c-13.336,0-24.248,10.911-24.248,24.248V60.203z"/>
	<path style="fill:#005CB9;" d="M193.559,137.03c0,13.337,10.912,24.248,24.248,24.248h80.504c13.336,0,24.248-10.911,24.248-24.248
		v-28.331c0-13.336-10.912-24.248-24.248-24.248h-80.504c-13.336,0-24.248,10.912-24.248,24.248V137.03z"/>
	<path style="fill:#FEE050;" d="M193.559,213.857c0,13.336,10.912,24.248,24.248,24.248h80.504
		c13.336,0,24.248-10.912,24.248-24.248v-28.331c0-13.336-10.912-24.248-24.248-24.248h-80.504
		c-13.336,0-24.248,10.912-24.248,24.248V213.857z"/>
	<path style="fill:#AF8400;" d="M193.559,290.684c0,13.337,10.912,24.248,24.248,24.248h80.504
		c13.336,0,24.248-10.911,24.248-24.248v-28.33c0-13.337-10.912-24.248-24.248-24.248h-80.504
		c-13.336,0-24.248,10.911-24.248,24.248V290.684z"/>
	<path style="fill:#E8E8E8;" d="M251.816,27.86c0-13.75-11.25-25-25-25H25c-13.75,0-25,11.25-25,25v266.838c0,13.75,11.25,25,25,25
		h201.816c13.75,0,25-11.25,25-25V27.86z"/>
	<rect x="32.913" y="222.336" style="fill:#7D868C;" width="185.991" height="15.377"/>
	<g>
		<path style="fill:#C3C6C8;" d="M59.391,191.202h133.035c-3.889-18.288-15.125-33.858-30.472-43.474
			c10.765-9.798,17.523-23.924,17.523-39.628c0-29.586-23.984-53.57-53.57-53.57c-29.584,0-53.57,23.984-53.57,53.57
			c0,15.704,6.758,29.83,17.524,39.628C74.515,157.344,63.279,172.913,59.391,191.202z"/>
	</g>
	<rect x="56.33" y="251.999" style="fill:#7D868C;" width="139.156" height="15.377"/>
</g>
</svg>