<?xml version="1.0" encoding="iso-8859-1"?>
<!-- Uploaded to: SVG Repo, www.svgrepo.com, Generator: SVG Repo Mixer Tools -->
<svg height="800px" width="800px" version="1.1" id="Layer_1" xmlns="http://www.w3.org/2000/svg" xmlns:xlink="http://www.w3.org/1999/xlink" 
	 viewBox="0 0 512 512" xml:space="preserve">
<circle style="fill:#FD8469;" cx="256" cy="256" r="256"/>
<path style="fill:#FC6F58;" d="M295.398,508.981c114.297-17.656,203.629-110.911,215.304-227.076L367.964,139.167L161.761,239.335
	l-42.17,19.308l95.351,95.351l-35.271,39.26L295.398,508.981z"/>
<path style="fill:#3E5A6D;" d="M215.45,399.262h-21.969c-8.447,0-15.869-5.604-18.18-13.729l-33.725-118.484h61.278l30.779,108.134
	C237.068,387.255,228.002,399.262,215.45,399.262z"/>
<path style="fill:#324A5E;" d="M358.157,328.93l-216.581-61.881v-98.909l218.067-31.153c6.715-0.958,12.721,4.251,12.721,11.033
	v170.193C372.364,325.618,365.277,330.964,358.157,328.93z"/>
<path style="fill:#2B3B4E;" d="M141.576,218.936v48.112l216.581,61.88c7.12,2.034,14.207-3.312,14.207-10.716v-99.276H141.576z"/>
<g>
	<polygon style="fill:#B5F1F4;" points="299.765,145.542 299.765,312.246 344.39,324.996 344.39,139.167 	"/>
	<path style="fill:#B5F1F4;" d="M141.576,267.048L141.576,267.048v-98.909l0,0c-18.208,0-32.97,14.762-32.97,32.97v32.97
		C108.606,252.288,123.368,267.048,141.576,267.048z"/>
</g>
<g>
	<polygon style="fill:#84DBFF;" points="299.765,218.936 299.765,312.246 344.39,324.996 344.39,218.936 	"/>
	<path style="fill:#84DBFF;" d="M108.606,218.936v15.143c0,18.208,14.762,32.97,32.97,32.97v-48.112H108.606z"/>
</g>
</svg>