<?xml version="1.0" encoding="utf-8"?>
<!-- Generator: Adobe Illustrator 27.5.0, SVG Export Plug-In . SVG Version: 6.00 Build 0)  -->
<svg version="1.1" id="_x3C_Layer_x3E_" xmlns="http://www.w3.org/2000/svg" xmlns:xlink="http://www.w3.org/1999/xlink" x="0px"
	 y="0px" viewBox="0 0 3000 2000" style="enable-background:new 0 0 3000 2000;" xml:space="preserve">
<rect style="fill:#FFFFFF;" width="3000" height="2000"/>
<g>
	<defs>
		<path id="SVGID_1_" d="M2506.312,1632.806c51.519,298.043-615.377,285.341-908.198,174.536
			c-90.157-34.116-171.737-44.396-252.79-41.089c-81.022,3.297-161.516,20.162-249.521,40.362
			c-7.909,1.812-15.867,3.655-23.896,5.519c-18.168,4.203-36.676,8.516-55.592,12.84c-89.001,20.34-187.027,40.989-301.09,52.992
			c-13.258,1.395-26.307,2.291-39.137,2.699c-176.796,5.617-311.737-80.744-383.127-207.287
			c-74.886-132.71-79.867-309.616,10.06-470.944c181.886-326.3-22.352-456.151,15.938-713.861
			c38.29-257.719,396.207-327.914,664.245-222.746c268.048,105.167,655.818-85.027,655.818-85.027
			c134.632-53.928,241.214-70.413,326.65-57.604c94.131,14.115,162.592,63.78,214.619,138.089
			c13.239,18.886,25.41,39.376,36.667,61.27c23.319,45.342,59.555,69.368,102.508,83.254
			c85.285,27.572,197.036,15.171,286.585,50.363c50.532,19.862,93.992,54.874,121.644,120.776
			C2903.794,996.66,2371.83,854.867,2506.312,1632.806z"/>
	</defs>
	<clipPath id="SVGID_00000170987592284155071560000000400577480510697118_">
		<use xlink:href="#SVGID_1_"  style="overflow:visible;"/>
	</clipPath>
	<g style="clip-path:url(#SVGID_00000170987592284155071560000000400577480510697118_);">
		<path style="fill:#DDE7FE;" d="M2506.312,1632.806c51.519,298.043-615.377,285.341-908.198,174.536
			c-90.157-34.116-171.737-44.396-252.79-41.089c-81.022,3.297-161.516,20.162-249.521,40.362
			c-7.909,1.812-15.867,3.655-23.896,5.519c-18.168,4.203-36.676,8.516-55.592,12.84c-89.001,20.34-187.027,40.989-301.09,52.992
			c-13.258,1.395-26.307,2.291-39.137,2.699c-176.796,5.617-311.737-80.744-383.127-207.287
			c-74.886-132.71-79.867-309.616,10.06-470.944c181.886-326.3-22.352-456.151,15.938-713.861
			c38.29-257.719,396.207-327.914,664.245-222.746c268.048,105.167,655.818-85.027,655.818-85.027
			c134.632-53.928,241.214-70.413,326.65-57.604c94.131,14.115,162.592,63.78,214.619,138.089
			c13.239,18.886,25.41,39.376,36.667,61.27c23.319,45.342,59.555,69.368,102.508,83.254
			c85.285,27.572,197.036,15.171,286.585,50.363c50.532,19.862,93.992,54.874,121.644,120.776
			C2903.794,996.66,2371.83,854.867,2506.312,1632.806z"/>
	</g>
	<g style="clip-path:url(#SVGID_00000170987592284155071560000000400577480510697118_);">
		<path style="fill:#BDD1F9;" d="M2314.879,1871.832c0.197-0.008,0.396-0.035,0.596-0.085c1.605-0.396,2.588-2.016,2.191-3.622
			c-103.252-419.414-201.469-716.804-276.552-837.39c-1.668-2.677-2.872-4.61-3.318-5.581c-0.695-1.504-2.476-2.153-3.973-1.466
			c-1.502,0.695-2.158,2.472-1.465,3.974c0.605,1.309,1.76,3.166,3.674,6.238c74.758,120.064,172.715,416.84,275.822,835.656
			C2312.199,1870.961,2313.486,1871.888,2314.879,1871.832z"/>
		<path style="fill:#BDD1F9;" d="M1985.712,1006.621c8.93,13.558,55.999,40.004,59.869,37.454
			c3.872-2.549-1.838-56.234-10.769-69.793c-8.929-13.56-27.16-17.311-40.719-8.381
			C1980.534,974.831,1976.781,993.063,1985.712,1006.621z"/>
		<path style="fill:#BDD1F9;" d="M2076.929,1051.095c-5.578,15.645,1.802,70.383,6.27,71.974
			c4.465,1.593,44.809-36.13,50.387-51.776c5.58-15.645-2.583-32.85-18.229-38.427
			C2099.712,1027.288,2082.507,1035.449,2076.929,1051.095z"/>
		<path style="fill:#BDD1F9;" d="M2014.55,1143.002c16.499,1.912,68.169-17.605,68.715-22.315s-45.293-35.522-61.792-37.435
			c-16.5-1.911-31.426,9.916-33.338,26.414C1986.225,1126.167,1998.05,1141.091,2014.55,1143.002z"/>
		<path style="fill:#BDD1F9;" d="M2204.896,1332.098c-12.139,25.1-9.724,117.778-2.56,121.244s81.313-52.187,93.451-77.286
			c12.138-25.099,1.632-55.286-23.468-67.425C2247.221,1296.492,2217.034,1307,2204.896,1332.098z"/>
		<path style="fill:#BDD1F9;" d="M2084.175,1474.186c27.187,6.175,116.941-17.048,118.703-24.807
			c1.763-7.76-69.157-67.473-96.344-73.648c-27.188-6.176-54.234,10.86-60.408,38.047
			C2039.951,1440.965,2056.985,1468.011,2084.175,1474.186z"/>
		<path style="fill:#BDD1F9;" d="M2272.043,1439.076c-21.249,26.691-43.33,137.975-35.712,144.042
			c7.619,6.064,111.122-40.395,132.372-67.088c21.251-26.692,16.839-65.557-9.854-86.807
			C2332.159,1407.973,2293.294,1412.384,2272.043,1439.076z"/>
		<path style="fill:#BDD1F9;" d="M2100.313,1624.348c33.871,4.093,140.201-35.474,141.368-45.143
			c1.168-9.667-92.676-73.423-126.547-77.516c-33.871-4.093-64.648,20.047-68.741,53.919
			C2042.301,1589.478,2066.442,1620.255,2100.313,1624.348z"/>
		<path style="fill:#BDD1F9;" d="M2310.014,1576.061c-21.251,26.694-43.332,137.976-35.715,144.042
			c7.62,6.065,111.124-40.396,132.373-67.088c21.252-26.691,16.839-65.555-9.853-86.806
			C2370.128,1544.957,2331.263,1549.369,2310.014,1576.061z"/>
		<path style="fill:#BDD1F9;" d="M2138.281,1761.333c33.872,4.093,140.201-35.476,141.369-45.143
			c1.168-9.667-92.676-73.423-126.548-77.516c-33.871-4.093-64.647,20.048-68.74,53.919
			C2080.27,1726.465,2104.41,1757.24,2138.281,1761.333z"/>
		<path style="fill:#BDD1F9;" d="M2399.649,1750.325c-29.816,16.586-92.62,111.07-87.886,119.58
			c4.733,8.511,118.132,4.977,147.947-11.608c29.816-16.586,40.54-54.202,23.956-84.016
			C2467.08,1744.464,2429.465,1733.738,2399.649,1750.325z"/>
		<path style="fill:#BDD1F9;" d="M2171.152,1896.587c33.095,8.295,143.536-17.67,145.904-27.115
			c2.367-9.446-82.77-84.432-115.864-92.729c-33.095-8.295-66.647,11.81-74.943,44.902
			C2117.955,1854.741,2138.057,1888.292,2171.152,1896.587z"/>
		<path style="fill:#BDD1F9;" d="M2116.356,1138.567c-5.667,15.895,1.832,71.51,6.369,73.128
			c4.538,1.617,45.529-36.71,51.195-52.607c5.667-15.895-2.624-33.376-18.521-39.043
			C2139.504,1114.379,2122.024,1122.671,2116.356,1138.567z"/>
		<path style="fill:#BDD1F9;" d="M2055.108,1233.085c16.763,1.94,69.261-17.889,69.816-22.674
			c0.554-4.784-46.019-36.093-62.783-38.034c-16.763-1.942-31.928,10.074-33.87,26.838
			C2026.328,1215.978,2038.344,1231.142,2055.108,1233.085z"/>
		<path style="fill:#BDD1F9;" d="M2162.281,1220.272c-9.877,21.847-5.739,101.467,0.497,104.285
			c6.236,2.819,68.741-46.672,78.618-68.519c9.876-21.848,0.173-47.565-21.676-57.441
			C2197.875,1188.721,2172.158,1198.426,2162.281,1220.272z"/>
		<path style="fill:#BDD1F9;" d="M2064.426,1354.103c23.816,2.758,98.399-25.415,99.187-32.212
			c0.789-6.798-65.379-51.276-89.196-54.035c-23.817-2.759-45.361,14.31-48.12,38.126
			C2023.538,1329.8,2040.609,1351.344,2064.426,1354.103z"/>
	</g>
	<g style="clip-path:url(#SVGID_00000170987592284155071560000000400577480510697118_);">
		<path style="fill:#BDD1F9;" d="M1968.722,2010.947c0.146-0.038,0.291-0.09,0.433-0.159c1.14-0.553,1.617-1.926,1.062-3.065
			c-144.515-297.869-265.727-505.074-341.306-583.45c-1.679-1.74-2.891-2.996-3.38-3.653c-0.762-1.016-2.201-1.218-3.213-0.464
			c-1.015,0.761-1.222,2.198-0.462,3.213c0.663,0.885,1.826,2.091,3.752,4.088c75.252,78.037,196.172,284.824,340.482,582.267
			C1966.573,2010.723,1967.686,2011.212,1968.722,2010.947z"/>
		<path style="fill:#BDD1F9;" d="M1583.523,1415.062c8.864,8.734,48.379,21.026,50.871,18.495
			c2.495-2.53-10.377-41.859-19.241-50.594c-8.863-8.735-23.129-8.63-31.864,0.234
			C1574.555,1392.061,1574.659,1406.328,1583.523,1415.062z"/>
		<path style="fill:#BDD1F9;" d="M1659.016,1433.802c-1.677,12.62,12.614,52.47,16.218,52.948
			c3.602,0.48,27.807-34.253,29.484-46.875c1.679-12.621-7.193-24.211-19.813-25.888
			C1672.285,1412.311,1660.694,1421.181,1659.016,1433.802z"/>
		<path style="fill:#BDD1F9;" d="M1626.965,1512.678c12.673-1.207,48.282-24.105,47.938-27.724
			c-0.345-3.618-39.636-19.379-52.31-18.173c-12.674,1.208-21.97,12.461-20.763,25.135
			C1603.038,1504.591,1614.291,1513.885,1626.965,1512.678z"/>
		<path style="fill:#BDD1F9;" d="M1799.908,1623.963c-5.083,20.758,11.559,89.843,17.483,91.294
			c5.925,1.451,52.601-52.131,57.683-72.888c5.082-20.757-7.624-41.703-28.381-46.786
			C1825.937,1590.5,1804.99,1603.208,1799.908,1623.963z"/>
		<path style="fill:#BDD1F9;" d="M1732.153,1749.791c21.368,0.278,84.931-31.493,85.01-37.591
			c0.08-6.099-62.638-39.51-84.005-39.788c-21.369-0.279-38.916,16.819-39.193,38.187
			C1693.686,1731.966,1710.783,1749.513,1732.153,1749.791z"/>
		<path style="fill:#BDD1F9;" d="M1867.36,1693.409c-11.657,23.408-10.401,110.359-3.72,113.688
			c6.682,3.326,76.832-48.063,88.49-71.472c11.658-23.409,2.132-51.836-21.278-63.493
			C1907.445,1660.474,1879.018,1670,1867.36,1693.409z"/>
		<path style="fill:#BDD1F9;" d="M1768.28,1859.769c26.044-2.352,99.417-49.027,98.745-56.462
			c-0.671-7.433-81.219-40.207-107.264-37.855c-26.045,2.352-45.252,25.372-42.9,51.418
			C1719.214,1842.914,1742.235,1862.121,1768.28,1859.769z"/>
		<path style="fill:#BDD1F9;" d="M1917.744,1790.016c-11.658,23.41-10.402,110.36-3.721,113.689
			c6.682,3.327,76.834-48.063,88.491-71.472c11.659-23.408,2.132-51.835-21.277-63.493
			C1957.828,1757.081,1929.401,1766.608,1917.744,1790.016z"/>
		<path style="fill:#BDD1F9;" d="M1818.662,1956.377c26.045-2.352,99.417-49.028,98.746-56.462
			c-0.671-7.433-81.219-40.207-107.265-37.855c-26.044,2.353-45.251,25.373-42.899,51.418
			C1769.597,1939.524,1792.617,1958.729,1818.662,1956.377z"/>
		<path style="fill:#BDD1F9;" d="M2012.821,1906.3c-19.696,17.204-51.654,98.08-46.743,103.701
			c4.91,5.622,89.348-15.173,109.043-32.377c19.696-17.204,21.715-47.117,4.512-66.812
			C2062.429,1891.116,2032.517,1889.095,2012.821,1906.3z"/>
		<path style="fill:#BDD1F9;" d="M1864.945,2052.503c26.135,0.922,104.767-36.214,105.03-43.674
			c0.263-7.459-75.555-50.045-101.69-50.968c-26.135-0.922-48.069,19.518-48.991,45.651
			C1818.373,2029.648,1838.81,2051.581,1864.945,2052.503z"/>
		<path style="fill:#BDD1F9;" d="M1702.568,1493.062c-1.704,12.822,12.817,53.311,16.477,53.798
			c3.66,0.486,28.254-34.804,29.957-47.626c1.705-12.822-7.308-24.599-20.131-26.303
			C1716.049,1471.226,1704.273,1480.239,1702.568,1493.062z"/>
		<path style="fill:#BDD1F9;" d="M1671.782,1573.713c12.876-1.228,49.055-24.493,48.705-28.168
			c-0.351-3.675-40.272-19.691-53.149-18.464c-12.877,1.227-22.321,12.661-21.094,25.538
			C1647.472,1565.495,1658.905,1574.939,1671.782,1573.713z"/>
		<path style="fill:#BDD1F9;" d="M1750.068,1546.959c-3.908,17.957,11.936,76.978,17.06,78.092
			c5.125,1.115,44.06-45.985,47.968-63.942c3.906-17.958-7.482-35.683-25.44-39.589
			C1771.7,1517.612,1753.976,1529.002,1750.068,1546.959z"/>
		<path style="fill:#BDD1F9;" d="M1698.133,1662.938c18.293-1.744,69.693-34.797,69.195-40.019
			c-0.496-5.222-57.214-27.974-75.508-26.231c-18.295,1.743-31.713,17.985-29.969,36.28
			C1663.595,1651.263,1679.839,1664.681,1698.133,1662.938z"/>
	</g>
	<g style="clip-path:url(#SVGID_00000170987592284155071560000000400577480510697118_);">
		<g>
			<g>
				<path style="fill:#E96F5F;" d="M956.865,1013.604c0,0,72.495,44.391,101.537,42.22c29.043-2.172,112.439-19.449,142.397-10.989
					c9.326,2.633,80.353,28.147,88.863,46.979c5.757,12.74-23.758,37.595-60.125,25.306c-63.214-21.361-102.691-4.665-130.888,3.88
					c-48.093,14.575-76.465,19.439-53.828,21.744c0,0,70.517-3.144,100.713,2.506c8.158,1.526,69.895,24.505,74.365,42.387
					c2.419,9.674-15.557,38.071-72.688,21.987c-37.546-10.57-64.193,8.895-91.748,22.559
					c-23.847,11.826-86.735,73.592-86.735,73.592l-61.33-94.718L956.865,1013.604z"/>
			</g>
			<g>
				<path style="fill:#FFA089;" d="M935.536,1811.862c-4.618-31.022,129.076-299.652,146.936-316.394
					c44.241-41.491,93.604-180.413,114.939-295.727c11.658-62.884,43.827-136.098,57.758-163.608
					c10.963-21.637,63.21-103.167,60.858-124.46c-1.4-12.531-43.474-25.639-62.291-21.259
					c-40.327,9.361-75.841,56.043-124.304,139.42c-46.167,79.439-126.652,117.197-126.185,64.447
					c1.23-139.05,276.536-183.723,274.699-249.123c-0.494-17.588-63.624-15.217-118.245-6.511
					c-22.459,3.58-157.98,42.952-211.538,73.245c-33.513,18.955-226.234,184.764-265.824,272.565
					c-18.224,40.417,8.946,338.708,11.002,347.744l0.013,0.033c-13.232,51.004-91.838,147.408-91.8,154.673
					C736.265,1732.134,829.189,1806.998,935.536,1811.862z"/>
			</g>
			<g>
				<polygon style="fill:#98C2F4;" points="943.169,1056.303 815.586,648.74 2190.669,780.425 				"/>
				<polygon style="fill:#EDF6FC;" points="765.067,715.8 610.35,922.07 880.151,899.042 2190.669,780.425 				"/>
				<polygon style="fill:#EDF6FC;" points="815.586,648.74 928.159,514.834 2190.669,780.425 				"/>
				<polygon style="fill:#A0CDF9;" points="839.266,724.387 815.586,648.74 2180.736,777.885 				"/>
			</g>
			<g>
				<polygon style="fill:#7798F8;" points="600.709,1673.523 666.081,1485.214 1026.934,1622.297 971.139,1801.19 				"/>
			</g>
			<g>
				<path style="fill:#100259;" d="M994.953,1772.065c0,0-21.482,152.746-45.134,317.954
					c-166.18,65.156-360.419,126.605-603.349,182.618c-11.893,2.738-23.782,5.258-35.717,7.558l294.338-654.46l10.801,4.071
					l11.507,4.324l13.235,4.956l0.029,0.012l11.246,4.218l0.017,0.041l0.012-0.029l312.693,117.366l11.159,4.183l0.021-0.008
					l1.304,0.477l4.664,1.737l6.409,2.411l0.058,0.024L994.953,1772.065z"/>
			</g>
			<g>
				<path style="fill:#100259;" d="M948.336,1673.345c-4.664,6.13-3.476,14.88,2.653,19.545c6.13,4.664,14.88,3.477,19.545-2.653
					c4.664-6.13,3.476-14.88-2.653-19.545C961.751,1666.027,953,1667.215,948.336,1673.345z"/>
			</g>
			<g>
				<path style="fill:#FFA089;" d="M1099.237,1475.562c39.382-55.958,79.497-174.936,98.19-275.817
					c11.642-62.875,43.798-136.103,57.732-163.62c10.972-21.613,63.228-103.159,60.877-124.457
					c-1.421-12.531-43.495-25.632-62.302-21.253c-40.325,9.364-75.856,56.039-124.3,139.403
					c-46.162,79.453-82.138,105.024-120.64,117.109c-13.28,4.168-10.274,154.953-89.252,97.659
					c-39.668-28.776-164.475,62.018-153.98,91.036C852.419,1575.787,1099.237,1475.562,1099.237,1475.562z"/>
			</g>
		</g>
	</g>
</g>
</svg>
