<?xml version="1.0" encoding="iso-8859-1"?>
<!-- Uploaded to: SVG Repo, www.svgrepo.com, Generator: SVG Repo Mixer Tools -->
<svg height="800px" width="800px" version="1.1" id="Layer_1" xmlns="http://www.w3.org/2000/svg" xmlns:xlink="http://www.w3.org/1999/xlink" 
	 viewBox="0 0 428.672 428.672" xml:space="preserve">
<g>
	<path style="fill:#80D440;" d="M284.22,260.336l-16-60l-112-144l-76,176v80L284.22,260.336z"/>
	<path style="fill:#80D440;" d="M121.02,195.536c-26-13.6-44.8-50.8-44.8-89.6c0-36.4,29.6-66.4,66.4-66.4c11.2,0,21.6,2.8,30.8,7.6
		"/>
</g>
<path style="fill:#6EA62A;" d="M121.02,203.536c-1.2,0-2.4-0.4-3.6-0.8c-29.2-15.2-49.2-54.8-49.2-96.8c0-41.2,33.2-74.4,74.4-74.4
	c12,0,23.6,2.8,34.4,8.4c4,2,5.6,6.8,3.2,10.8s-6.8,5.6-10.8,3.2c-8.4-4.4-17.6-6.8-27.2-6.8c-32.4,0-58.4,26-58.4,58.4
	c0.4,36,17.6,70.8,40.8,82.8c4,2,5.6,6.8,3.2,10.8C126.62,201.936,123.82,203.536,121.02,203.536z"/>
<path style="fill:#80D440;" d="M104.62,189.936c-40,9.6-69.6,21.2-82.8,64.8l-13.2,46.8c-2,7.6,3.6,14.8,11.2,14.8h66"/>
<path style="fill:#6EA62A;" d="M85.82,324.336h-66c-6,0-11.6-2.8-15.6-7.6c-3.6-4.8-5.2-11.2-3.6-17.2l13.2-46.8
	c14.8-49.2,48.8-60.8,88.8-70.4c4.4-1.2,8.8,1.6,9.6,6c1.2,4.4-1.6,8.8-6,9.6c-42,10-65.6,22-76.8,59.2l-13.2,46.4
	c-0.4,1.6,0.4,2.8,0.8,3.2c0.4,0.4,1.2,1.2,2.8,1.2h66c4.4,0,8,3.6,8,8S90.22,324.336,85.82,324.336z"/>
<path style="fill:#80D440;" d="M207.82,189.936c40,9.6,69.6,21.2,82.8,64.8l13.6,46.8c2,7.2-3.6,14.8-11.2,14.8h-66.4"/>
<path style="fill:#6EA62A;" d="M293.02,324.336h-66.4c-4.4,0-8-3.6-8-8s3.6-8,8-8h66.4c1.6,0,2.4-0.8,2.8-1.6
	c0.4-0.4,1.2-1.6,0.8-3.2l-13.6-46.8c-11.2-37.2-34.8-49.2-76.8-59.2c-4.4-1.2-6.8-5.2-6-9.6c1.2-4.4,5.2-6.8,9.6-6
	c39.6,9.6,73.6,21.2,88.4,70.4l13.6,46.8c1.6,6,0.4,12.4-3.2,17.2C304.62,321.536,299.02,324.336,293.02,324.336z"/>
<path style="fill:#F5E6C6;" d="M169.02,90.736c0-45.6,36.8-82.4,82.4-82.4s82.4,36.8,82.4,82.4c0,60.4-36.8,118-82.4,118
	S169.02,151.536,169.02,90.736L169.02,90.736z"/>
<path style="fill:#FF793B;" d="M406.22,356.336c9.6,0,16.4-9.2,14-18.4l-17.2-58.4c-8.8-30.4-32.8-54-63.6-62l-5.2-1.2l0,0
	c-4.4-1.2-9.6,0.4-12.4,4c-19.6,21.6-43.6,24-69.6,24c-26.4,0-50.4-2.4-69.6-24.4c-3.2-3.6-8-5.2-12.4-4l0,0l-4.8,1.2
	c-30.8,8-54.8,31.6-63.6,62l-16.8,58.4c-2.8,9.2,4.4,18.4,14,18.4L406.22,356.336L406.22,356.336z"/>
<path style="fill:#C6490F;" d="M406.22,364.336h-8v-0.4H99.02c-7.2,0-14-3.6-18.4-9.2s-5.6-12.8-3.6-19.6l16.8-58.4
	c9.6-33.2,36-58.8,69.2-67.6l5.2-0.8c7.2-2,15.2,0.4,20.4,6.4c17.6,20,40,21.6,63.6,21.6c23.2,0,45.6-1.6,63.6-21.2
	c4.8-6,13.2-8.4,20.4-6.4l4.8,1.2c33.2,8.8,60,34.4,69.6,67.6l17.2,58.4c2,7.2,0.4,14.4-4,20
	C419.82,361.136,413.02,364.336,406.22,364.336z M173.02,223.536c-0.4,0-0.4,0-0.8,0l-4.8,1.2c-27.6,7.2-50,28.8-58,56.4l-16.8,58.4
	c-0.8,2.8,0.4,4.4,0.8,5.6c1.2,1.6,3.2,2.8,5.2,2.8h309.6c1.6-0.4,2.4-1.6,2.8-2c1.2-1.6,1.6-4,1.2-6l-17.2-58
	c-8-27.6-30.4-49.2-58-56.4l-4.8-1.2c-1.6-0.4-3.6,0-4.4,1.2l-0.4,0.4c-22,24.4-49.2,26.4-75.2,26.4c-26.4,0-53.6-2-75.6-27.2
	C175.82,224.336,174.22,223.536,173.02,223.536z"/>
<path style="fill:#EFDBB2;" d="M333.02,79.536c-2.8,64.8-42.8,124.8-92,124.8c23.2-18.4,42.8-62.4,51.2-132
	C319.82,80.736,333.42,77.536,333.02,79.536L333.02,79.536z"/>
<path style="fill:#C89406;" d="M251.42,216.736c-49.2,0-90.4-57.6-90.4-126c0-2.4,0-4.8,0.4-7.6c0.8-4.4,5.2-7.2,9.6-6.4
	c4.4,0.8,7.2,5.2,6.4,9.6c-0.4,1.2-0.4,2.8-0.4,4.4c0,58.4,34.8,110,74.4,110s74.4-51.6,74.4-110c0-4.4-0.4-8.8-1.2-12.4
	c-0.8-4.4,2-8.4,6.4-9.2s8.4,2,9.2,6.4c0.8,4.8,1.2,10,1.2,15.6C341.82,157.936,299.42,216.736,251.42,216.736z"/>
<path style="fill:#FFC729;" d="M169.02,84.736c3.2-42.8,38.8-76.4,82-76.4c40.8,0,74.4,29.6,81.2,68.4c0,0-34.8,4.4-50.4-18
	l-1.2,2.8c-12.8,25.6-53.6,38.8-105.6,27.2L169.02,84.736L169.02,84.736z"/>
<path style="fill:#C89406;" d="M211.42,101.136c-12,0-24.8-1.6-38.4-4.4l-1.2-0.4l-11.2-7.6l0.4-4.8c3.6-46.8,43.2-83.6,90-83.6
	c44,0,81.6,31.6,89.2,75.2l1.6,8.4l-8.4,1.2c-1.2,0-30.4,3.6-49.6-12.4C269.82,90.736,243.82,101.136,211.42,101.136z
	 M178.22,81.136c44.4,9.6,83.2,0,95.2-23.2l6.8-16l8.4,12c8.4,12,24,14.4,33.6,14.8c-9.6-30.8-38-52.4-71.2-52.4
	c-37.2,0-68.4,28-73.6,64.4L178.22,81.136z"/>
<circle style="fill:#80D440;" cx="256.22" cy="356.336" r="64"/>
<path style="fill:#6EA62A;" d="M256.22,428.336c-39.6,0-72-32.4-72-72s32.4-72,72-72s72,32.4,72,72S295.82,428.336,256.22,428.336z
	 M256.22,300.336c-30.8,0-56,25.2-56,56s25.2,56,56,56s56-25.2,56-56S287.02,300.336,256.22,300.336z"/>
<g>
	<path style="fill:#FFFFFF;" d="M256.22,400.336c-4.4,0-8-3.6-8-8v-72c0-4.4,3.6-8,8-8c4.4,0,8,3.6,8,8v72
		C264.22,396.736,260.62,400.336,256.22,400.336z"/>
	<path style="fill:#FFFFFF;" d="M292.22,364.336h-72c-4.4,0-8-3.6-8-8s3.6-8,8-8h72c4.4,0,8,3.6,8,8S296.62,364.336,292.22,364.336z
		"/>
</g>
</svg>